<?xml version="1.0" encoding="utf-8"?>
<!-- Generator: Adobe Illustrator 23.0.2, SVG Export Plug-In . SVG Version: 6.00 Build 0)  -->
<svg version="1.1" id="Layer_1" xmlns="http://www.w3.org/2000/svg" xmlns:xlink="http://www.w3.org/1999/xlink" x="0px" y="0px"
	 viewBox="0 0 1440 768" style="enable-background:new 0 0 1440 768;" xml:space="preserve">
<style type="text/css">
	.st0{fill:#EE1E38;}
	.st1{fill:#FFFFFF;}
	.st2{fill:#4788C8;}
	.st3{fill:none;stroke:#D2D9DE;stroke-width:3;stroke-miterlimit:10;}
</style>
<g>
	<path class="st0" d="M50.5,72c3.58,0,6.5,2.92,6.5,6.5S54.08,85,50.5,85S44,82.08,44,78.5S46.92,72,50.5,72 M50.5,70
		c-4.69,0-8.5,3.81-8.5,8.5s3.81,8.5,8.5,8.5s8.5-3.81,8.5-8.5S55.19,70,50.5,70L50.5,70z"/>
</g>
<g>
	<path class="st0" d="M417,194c4.41,0,8,3.59,8,8s-3.59,8-8,8s-8-3.59-8-8S412.59,194,417,194 M417,192c-5.52,0-10,4.48-10,10
		s4.48,10,10,10s10-4.48,10-10S422.52,192,417,192L417,192z"/>
</g>
<g>
	<path class="st0" d="M1404,296c4.41,0,8,3.59,8,8s-3.59,8-8,8s-8-3.59-8-8S1399.59,296,1404,296 M1404,294c-5.52,0-10,4.48-10,10
		s4.48,10,10,10s10-4.48,10-10S1409.52,294,1404,294L1404,294z"/>
</g>
<g>
	<circle class="st1" cx="603" cy="723" r="8"/>
	<path class="st0" d="M603,716c3.86,0,7,3.14,7,7s-3.14,7-7,7s-7-3.14-7-7S599.14,716,603,716 M603,714c-4.97,0-9,4.03-9,9
		s4.03,9,9,9s9-4.03,9-9S607.97,714,603,714L603,714z"/>
</g>
<g>
	<circle class="st1" cx="732" cy="475" r="8"/>
	<path class="st0" d="M732,468c3.86,0,7,3.14,7,7s-3.14,7-7,7s-7-3.14-7-7S728.14,468,732,468 M732,466c-4.97,0-9,4.03-9,9
		s4.03,9,9,9s9-4.03,9-9S736.97,466,732,466L732,466z"/>
</g>
<g>
	<polygon class="st1" points="113.73,555 122.03,540.62 130.33,555 	"/>
	<path class="st2" d="M122.03,542.62L128.6,554h-13.14L122.03,542.62 M122.03,538.62L112,556h20.06L122.03,538.62L122.03,538.62z"/>
</g>
<g>
	<polygon class="st1" points="1028.07,288.83 1039.14,301.2 1022.89,304.6 	"/>
	<path class="st2" d="M1028.48,290.79l8.76,9.79l-12.86,2.69L1028.48,290.79 M1027.66,286.87l-6.26,19.06l19.64-4.11L1027.66,286.87
		L1027.66,286.87z"/>
</g>
<g>
	<path class="st2" d="M553,29.62l6.54,11.32h-13.07L553,29.62 M553,25.62l-10,17.32h20L553,25.62L553,25.62z"/>
</g>
<g>
	<polygon class="st1" points="1359.69,522.41 1372.15,509.3 1377.27,526.65 	"/>
	<path class="st2" d="M1371.68,511.24l4.14,14.02l-14.21-3.43L1371.68,511.24 M1372.62,507.36l-14.85,15.61l20.95,5.05
		L1372.62,507.36L1372.62,507.36z"/>
</g>
<g>
	<polygon class="st1" points="1101.59,738.67 1112.73,751.6 1095.96,754.79 	"/>
	<path class="st2" d="M1101.96,740.64l8.88,10.31l-13.37,2.54L1101.96,740.64 M1101.22,736.71l-6.77,19.39l20.17-3.83
		L1101.22,736.71L1101.22,736.71z"/>
</g>
<path class="st3" d="M59.34,372.14c7.59-2.94,15.78-5.92,23.67-3.93c4.23,1.07,8.05,3.51,12.35,4.23
	c6.44,1.07,13.39-2.31,16.51-8.05"/>
<path class="st3" d="M501.73,415.34c8.08-0.91,16.77-1.71,23.89,2.21c3.82,2.11,6.89,5.44,10.87,7.23
	c5.96,2.67,13.54,1.17,18.02-3.59"/>
<path class="st3" d="M858.3,127.11c7.87-2.06,16.36-4.09,23.97-1.21c4.08,1.54,7.6,4.41,11.79,5.6c6.28,1.8,13.56-0.78,17.32-6.12"
	/>
<path class="st3" d="M1362.3,33.11c7.87-2.06,16.36-4.09,23.97-1.21c4.08,1.54,7.6,4.41,11.79,5.6c6.28,1.8,13.56-0.78,17.32-6.12"
	/>
<path class="st3" d="M160.3,741.11c7.87-2.06,16.36-4.09,23.97-1.21c4.08,1.54,7.6,4.41,11.79,5.6c6.28,1.8,13.56-0.78,17.32-6.12"
	/>
</svg>
